HIERARCHY
ROOT mixamorig:Hips
{
	OFFSET -0.000008 104.274872 1.554316
	CHANNELS 6 Xposition Yposition Zposition Xrotation Yrotation Zrotation
	JOINT mixamorig:Spine
	{
		OFFSET -0.000005 10.181595 0.131519
		CHANNELS 6 Xposition Yposition Zposition Xrotation Yrotation Zrotation
		JOINT mixamorig:Spine1
		{
			OFFSET -0.000000 9.893959 -1.470707
			CHANNELS 6 Xposition Yposition Zposition Xrotation Yrotation Zrotation
			JOINT mixamorig:Spine2
			{
				OFFSET -0.000000 9.220757 -1.370641
				CHANNELS 6 Xposition Yposition Zposition Xrotation Yrotation Zrotation
				JOINT mixamorig:Neck
				{
					OFFSET 0.000001 16.740417 -2.049036
					CHANNELS 6 Xposition Yposition Zposition Xrotation Yrotation Zrotation
					JOINT mixamorig:Head
					{
						OFFSET 0.000000 9.617874 1.685006
						CHANNELS 6 Xposition Yposition Zposition Xrotation Yrotation Zrotation
						JOINT mixamorig:HeadTop_End
						{
							OFFSET 0.000002 22.037354 7.501101
							CHANNELS 6 Xposition Yposition Zposition Xrotation Yrotation Zrotation
							End Site
							{
								OFFSET 0.000168 2310.654297 -282.823242
							}
						}
					}
				}
				JOINT mixamorig:RightShoulder
				{
					OFFSET -4.569970 11.014908 -2.160885
					CHANNELS 6 Xposition Yposition Zposition Xrotation Yrotation Zrotation
					JOINT mixamorig:RightArm
					{
						OFFSET -10.592851 -0.524811 -2.232101
						CHANNELS 6 Xposition Yposition Zposition Xrotation Yrotation Zrotation
						JOINT mixamorig:RightForeArm
						{
							OFFSET -27.841511 0.000031 -0.000004
							CHANNELS 6 Xposition Yposition Zposition Xrotation Yrotation Zrotation
							JOINT mixamorig:RightHand
							{
								OFFSET -28.328831 -0.000015 0.000015
								CHANNELS 6 Xposition Yposition Zposition Xrotation Yrotation Zrotation
								JOINT mixamorig:RightHandThumb1
								{
									OFFSET -2.464806 -1.573990 2.681852
									CHANNELS 6 Xposition Yposition Zposition Xrotation Yrotation Zrotation
									JOINT mixamorig:RightHandThumb2
									{
										OFFSET -3.215179 -1.872803 1.924282
										CHANNELS 6 Xposition Yposition Zposition Xrotation Yrotation Zrotation
										JOINT mixamorig:RightHandThumb3
										{
											OFFSET -2.654831 -1.527969 1.512609
											CHANNELS 6 Xposition Yposition Zposition Xrotation Yrotation Zrotation
											JOINT mixamorig:RightHandThumb4
											{
												OFFSET -2.018814 -1.152008 1.108052
												CHANNELS 6 Xposition Yposition Zposition Xrotation Yrotation Zrotation
												End Site
												{
													OFFSET -188.809540 -114.533607 132.431396
												}
											}
										}
									}
								}
								JOINT mixamorig:RightHandIndex1
								{
									OFFSET -9.108284 -0.517868 2.259835
									CHANNELS 6 Xposition Yposition Zposition Xrotation Yrotation Zrotation
									JOINT mixamorig:RightHandIndex2
									{
										OFFSET -3.699989 0.000000 0.001215
										CHANNELS 6 Xposition Yposition Zposition Xrotation Yrotation Zrotation
										JOINT mixamorig:RightHandIndex3
										{
											OFFSET -2.850006 0.000031 -0.000522
											CHANNELS 6 Xposition Yposition Zposition Xrotation Yrotation Zrotation
											JOINT mixamorig:RightHandIndex4
											{
												OFFSET -2.772186 -0.000015 -0.000020
												CHANNELS 6 Xposition Yposition Zposition Xrotation Yrotation Zrotation
												End Site
												{
													OFFSET -277.218445 0.000000 -0.050231
												}
											}
										}
									}
								}
								JOINT mixamorig:RightHandMiddle1
								{
									OFFSET -9.532516 -0.000031 -0.000023
									CHANNELS 6 Xposition Yposition Zposition Xrotation Yrotation Zrotation
									JOINT mixamorig:RightHandMiddle2
									{
										OFFSET -3.700005 -0.000015 0.003713
										CHANNELS 6 Xposition Yposition Zposition Xrotation Yrotation Zrotation
										JOINT mixamorig:RightHandMiddle3
										{
											OFFSET -2.949974 0.000015 -0.002054
											CHANNELS 6 Xposition Yposition Zposition Xrotation Yrotation Zrotation
											JOINT mixamorig:RightHandMiddle4
											{
												OFFSET -2.946640 0.000000 -0.000156
												CHANNELS 6 Xposition Yposition Zposition Xrotation Yrotation Zrotation
												End Site
												{
													OFFSET -294.664337 0.000000 -0.113670
												}
											}
										}
									}
								}
								JOINT mixamorig:RightHandRing1
								{
									OFFSET -9.103600 -0.043076 -1.865134
									CHANNELS 6 Xposition Yposition Zposition Xrotation Yrotation Zrotation
									JOINT mixamorig:RightHandRing2
									{
										OFFSET -3.379288 0.000000 -0.001055
										CHANNELS 6 Xposition Yposition Zposition Xrotation Yrotation Zrotation
										JOINT mixamorig:RightHandRing3
										{
											OFFSET -2.889687 -0.000015 0.000379
											CHANNELS 6 Xposition Yposition Zposition Xrotation Yrotation Zrotation
											JOINT mixamorig:RightHandRing4
											{
												OFFSET -2.638809 -0.000015 0.000941
												CHANNELS 6 Xposition Yposition Zposition Xrotation Yrotation Zrotation
												End Site
												{
													OFFSET -263.880371 0.000000 0.516020
												}
											}
										}
									}
								}
								JOINT mixamorig:RightHandPinky1
								{
									OFFSET -8.076683 -0.486710 -3.806280
									CHANNELS 6 Xposition Yposition Zposition Xrotation Yrotation Zrotation
									JOINT mixamorig:RightHandPinky2
									{
										OFFSET -3.600014 -0.000015 -0.003747
										CHANNELS 6 Xposition Yposition Zposition Xrotation Yrotation Zrotation
										JOINT mixamorig:RightHandPinky3
										{
											OFFSET -2.099983 0.000000 -0.005739
											CHANNELS 6 Xposition Yposition Zposition Xrotation Yrotation Zrotation
											JOINT mixamorig:RightHandPinky4
											{
												OFFSET -2.115768 -0.000031 -0.003680
												CHANNELS 6 Xposition Yposition Zposition Xrotation Yrotation Zrotation
												End Site
												{
													OFFSET -211.577087 0.000000 -0.350686
												}
											}
										}
									}
								}
							}
						}
					}
				}
				JOINT mixamorig:LeftShoulder
				{
					OFFSET 4.570447 11.014725 -2.160855
					CHANNELS 6 Xposition Yposition Zposition Xrotation Yrotation Zrotation
					JOINT mixamorig:LeftArm
					{
						OFFSET 10.592371 -0.524597 -2.232119
						CHANNELS 6 Xposition Yposition Zposition Xrotation Yrotation Zrotation
						JOINT mixamorig:LeftForeArm
						{
							OFFSET 27.841532 -0.000031 0.000026
							CHANNELS 6 Xposition Yposition Zposition Xrotation Yrotation Zrotation
							JOINT mixamorig:LeftHand
							{
								OFFSET 28.328846 -0.000061 0.000022
								CHANNELS 6 Xposition Yposition Zposition Xrotation Yrotation Zrotation
								JOINT mixamorig:LeftHandThumb1
								{
									OFFSET 2.466141 -1.576172 2.681732
									CHANNELS 6 Xposition Yposition Zposition Xrotation Yrotation Zrotation
									JOINT mixamorig:LeftHandThumb2
									{
										OFFSET 3.217812 -1.872070 1.916482
										CHANNELS 6 Xposition Yposition Zposition Xrotation Yrotation Zrotation
										JOINT mixamorig:LeftHandThumb3
										{
											OFFSET 2.656029 -1.528778 1.514513
											CHANNELS 6 Xposition Yposition Zposition Xrotation Yrotation Zrotation
											JOINT mixamorig:LeftHandThumb4
											{
												OFFSET 2.020889 -1.154053 1.115139
												CHANNELS 6 Xposition Yposition Zposition Xrotation Yrotation Zrotation
												End Site
												{
													OFFSET 190.885437 -115.081749 130.048782
												}
											}
										}
									}
								}
								JOINT mixamorig:LeftHandIndex1
								{
									OFFSET 9.109314 -0.518021 2.259871
									CHANNELS 6 Xposition Yposition Zposition Xrotation Yrotation Zrotation
									JOINT mixamorig:LeftHandIndex2
									{
										OFFSET 3.699989 0.000000 -0.000322
										CHANNELS 6 Xposition Yposition Zposition Xrotation Yrotation Zrotation
										JOINT mixamorig:LeftHandIndex3
										{
											OFFSET 2.850006 0.000000 0.000352
											CHANNELS 6 Xposition Yposition Zposition Xrotation Yrotation Zrotation
											JOINT mixamorig:LeftHandIndex4
											{
												OFFSET 2.774864 -0.000031 -0.000027
												CHANNELS 6 Xposition Yposition Zposition Xrotation Yrotation Zrotation
												End Site
												{
													OFFSET 277.486267 0.000000 -0.009857
												}
											}
										}
									}
								}
								JOINT mixamorig:LeftHandMiddle1
								{
									OFFSET 9.533394 0.000061 0.000044
									CHANNELS 6 Xposition Yposition Zposition Xrotation Yrotation Zrotation
									JOINT mixamorig:LeftHandMiddle2
									{
										OFFSET 3.699989 -0.000015 -0.000231
										CHANNELS 6 Xposition Yposition Zposition Xrotation Yrotation Zrotation
										JOINT mixamorig:LeftHandMiddle3
										{
											OFFSET 2.949997 -0.000015 -0.000059
											CHANNELS 6 Xposition Yposition Zposition Xrotation Yrotation Zrotation
											JOINT mixamorig:LeftHandMiddle4
											{
												OFFSET 2.952896 0.000031 0.000063
												CHANNELS 6 Xposition Yposition Zposition Xrotation Yrotation Zrotation
												End Site
												{
													OFFSET 295.289337 0.000000 0.022810
												}
											}
										}
									}
								}
								JOINT mixamorig:LeftHandRing1
								{
									OFFSET 9.104523 -0.042999 -1.865074
									CHANNELS 6 Xposition Yposition Zposition Xrotation Yrotation Zrotation
									JOINT mixamorig:LeftHandRing2
									{
										OFFSET 3.150009 -0.000031 0.000043
										CHANNELS 6 Xposition Yposition Zposition Xrotation Yrotation Zrotation
										JOINT mixamorig:LeftHandRing3
										{
											OFFSET 2.949982 -0.000015 0.000040
											CHANNELS 6 Xposition Yposition Zposition Xrotation Yrotation Zrotation
											JOINT mixamorig:LeftHandRing4
											{
												OFFSET 2.644348 0.000000 0.000057
												CHANNELS 6 Xposition Yposition Zposition Xrotation Yrotation Zrotation
												End Site
												{
													OFFSET 264.434631 0.000000 0.012105
												}
											}
										}
									}
								}
								JOINT mixamorig:LeftHandPinky1
								{
									OFFSET 8.077789 -0.486847 -3.806259
									CHANNELS 6 Xposition Yposition Zposition Xrotation Yrotation Zrotation
									JOINT mixamorig:LeftHandPinky2
									{
										OFFSET 3.599953 0.000031 0.014727
										CHANNELS 6 Xposition Yposition Zposition Xrotation Yrotation Zrotation
										JOINT mixamorig:LeftHandPinky3
										{
											OFFSET 2.100021 0.000015 0.007705
											CHANNELS 6 Xposition Yposition Zposition Xrotation Yrotation Zrotation
											JOINT mixamorig:LeftHandPinky4
											{
												OFFSET 2.125504 0.000031 0.007517
												CHANNELS 6 Xposition Yposition Zposition Xrotation Yrotation Zrotation
												End Site
												{
													OFFSET 212.550781 0.000000 0.625752
												}
											}
										}
									}
								}
							}
						}
					}
				}
			}
		}
	}
	JOINT mixamorig:RightUpLeg
	{
		OFFSET -8.207787 -6.751648 -1.599560
		CHANNELS 6 Xposition Yposition Zposition Xrotation Yrotation Zrotation
		JOINT mixamorig:RightLeg
		{
			OFFSET -0.000002 -44.370117 0.345942
			CHANNELS 6 Xposition Yposition Zposition Xrotation Yrotation Zrotation
			JOINT mixamorig:RightFoot
			{
				OFFSET 0.000003 -44.423679 -3.043532
				CHANNELS 6 Xposition Yposition Zposition Xrotation Yrotation Zrotation
				JOINT mixamorig:RightToeBase
				{
					OFFSET -0.000002 -8.728671 10.710558
					CHANNELS 6 Xposition Yposition Zposition Xrotation Yrotation Zrotation
					JOINT mixamorig:RightToe_End
					{
						OFFSET -0.000001 -0.000679 9.278119
						CHANNELS 6 Xposition Yposition Zposition Xrotation Yrotation Zrotation
						End Site
						{
							OFFSET 0.000000 -0.067690 927.812134
						}
					}
				}
			}
		}
	}
	JOINT mixamorig:LeftUpLeg
	{
		OFFSET 8.207793 -6.751686 -1.599556
		CHANNELS 6 Xposition Yposition Zposition Xrotation Yrotation Zrotation
		JOINT mixamorig:LeftLeg
		{
			OFFSET -0.000004 -44.370014 0.346954
			CHANNELS 6 Xposition Yposition Zposition Xrotation Yrotation Zrotation
			JOINT mixamorig:LeftFoot
			{
				OFFSET -0.000001 -44.423672 -3.044401
				CHANNELS 6 Xposition Yposition Zposition Xrotation Yrotation Zrotation
				JOINT mixamorig:LeftToeBase
				{
					OFFSET -0.000002 -8.728669 10.710558
					CHANNELS 6 Xposition Yposition Zposition Xrotation Yrotation Zrotation
					JOINT mixamorig:LeftToe_End
					{
						OFFSET -0.000003 -0.000679 9.278133
						CHANNELS 6 Xposition Yposition Zposition Xrotation Yrotation Zrotation
						End Site
						{
							OFFSET 0.000000 -0.068021 927.813477
						}
					}
				}
			}
		}
	}
}
MOTION
Frames: 3
Frame Time: 0.033333
0.000006 104.270477 1.554256 0.000010 0.000003 -0.000113 -0.000005 10.181587 0.131522 0.000001 -0.000003 0.000084 -0.000000 9.893967 -1.470711 0.000001 0.000000 -0.000000 -0.000000 9.220802 -1.370642 0.000000 -0.000000 -0.000000 0.000001 16.740433 -2.049030 0.000000 -0.000000 -0.000000 0.000000 9.617859 1.685014 0.000000 0.000000 0.000000 0.000002 22.037384 7.501101 0.000000 -0.000000 0.000000 -4.569968 11.014880 -2.160881 0.000008 0.000001 -0.000038 -10.592884 -0.524728 -2.231954 74.110168 19.562688 -14.832854 -27.841537 -0.000001 0.000533 -59.473298 108.941490 77.318274 -28.328819 0.000021 0.000025 -0.000316 -0.000044 0.000006 -2.464450 -1.573934 2.682387 -29.537792 -154.943156 28.660690 -3.215262 -1.872550 1.924634 153.283133 34.197425 21.585404 -2.654955 -1.527898 1.513081 151.684418 25.820926 -38.317320 -2.018831 -1.152007 1.108064 -0.000004 -0.000006 0.000001 -9.108396 -0.517561 2.260143 102.386393 16.863438 -20.945053 -3.700077 0.000320 0.001525 99.870534 14.115820 -16.720988 -2.850070 0.000350 -0.000254 98.172146 11.044443 -12.729691 -2.772145 -0.000015 -0.000020 -0.000002 -0.000000 0.000002 -9.532596 0.000280 0.000233 94.265080 14.693299 -15.967061 -3.700074 0.000325 0.003956 93.422788 11.365383 -11.960893 -2.950065 0.000337 -0.001821 92.201277 10.862922 -11.278486 -2.946633 -0.000000 -0.000157 -0.000000 -0.000000 0.000000 -9.103708 -0.042746 -1.864871 91.740383 15.617407 -16.047603 -3.379303 0.000326 -0.000806 93.422132 8.912242 -9.476922 -2.889738 0.000358 0.000628 95.946782 6.144890 -6.866675 -2.638822 -0.000016 0.000943 0.000002 0.000001 -0.000001 -8.076759 -0.486375 -3.806025 86.705604 15.374450 -14.384177 -3.600042 0.000304 -0.003520 90.732090 6.818733 -6.554437 -2.100024 0.000334 -0.005485 91.725547 3.929262 -3.828876 -2.115761 -0.000054 -0.003677 -0.000001 0.000000 -0.000003 4.570446 11.014691 -2.160851 -0.000018 0.000010 -0.000021 10.592373 -0.524498 -2.232327 74.447341 -1.071161 0.813851 27.841829 0.000093 -0.000201 99.286574 -68.934080 77.862230 28.328846 -0.000028 0.000020 0.000020 -0.000089 0.000001 2.466187 -1.576118 2.681858 -0.363643 155.446281 -77.177197 3.217769 -1.871701 1.916391 162.070567 -32.774396 -4.761979 2.656103 -1.528643 1.514473 143.412799 -26.740003 48.144941 2.020891 -1.154070 1.115152 0.000003 0.000003 0.000002 9.109385 -0.517844 2.259722 89.672119 -16.918496 16.810941 3.700049 0.000160 -0.000473 87.100656 -13.528341 12.882448 2.850044 0.000212 0.000196 86.807818 -11.580875 10.955701 2.774873 -0.000030 -0.000027 0.000000 -0.000002 -0.000000 9.533480 0.000231 -0.000093 89.935444 -14.893530 14.868205 3.700065 0.000188 -0.000376 90.914428 -10.995892 11.169006 2.950079 0.000186 -0.000199 90.947425 -14.367368 14.607406 2.952868 -0.000014 0.000064 0.000004 -0.000002 -0.000001 9.104589 -0.042830 -1.865218 88.135668 -13.760160 13.325422 3.150067 0.000218 -0.000106 93.983321 -11.389801 12.206456 2.950019 0.000171 -0.000076 95.931810 -13.456015 14.912794 2.644325 0.000046 0.000060 -0.000001 0.000000 -0.000000 8.077837 -0.486728 -3.806428 75.171313 -16.058687 12.849277 3.600002 0.000186 0.014578 79.546104 -14.182053 12.254091 2.100056 0.000185 0.007556 82.900984 -13.355309 12.240618 2.125499 -0.000028 0.007514 0.000001 0.000004 -0.000002 -8.207786 -6.751667 -1.599560 -0.077001 -0.000003 0.000080 -0.000002 -44.370110 0.345938 0.153719 -0.000000 -0.000000 0.000000 -44.423679 -3.043532 -0.076700 0.000000 -0.000002 -0.000006 -8.728667 10.710559 -0.000009 -0.000000 -0.000000 -0.000001 -0.000679 9.278123 0.000000 -0.000000 -0.000000 8.207792 -6.751710 -1.599556 -0.074518 -0.000003 0.000081 -0.000002 -44.370014 0.346960 0.148822 0.000002 0.000000 -0.000001 -44.423664 -3.044403 -0.074314 0.000000 -0.000002 -0.000004 -8.728671 10.710558 0.000007 -0.000000 -0.000000 0.000000 -0.000680 9.278137 -0.000000 0.000000 -0.000001 
0.000006 104.270477 1.554256 0.000010 0.000003 -0.000113 -0.000005 10.181587 0.131522 0.000001 -0.000003 0.000084 -0.000000 9.893967 -1.470711 0.000001 0.000000 -0.000000 -0.000000 9.220802 -1.370642 0.000000 -0.000000 -0.000000 0.000001 16.740433 -2.049030 0.000000 -0.000000 -0.000000 0.000000 9.617859 1.685014 0.000000 0.000000 0.000000 0.000002 22.037384 7.501101 0.000000 -0.000000 0.000000 -4.569968 11.014880 -2.160881 0.000008 0.000001 -0.000038 -10.592875 -0.524757 -2.231904 73.052862 28.009411 -20.933164 -27.841528 0.000015 0.000552 -56.036532 105.900423 70.357642 -28.328808 0.000018 0.000035 -0.000325 -0.000044 0.000007 -2.464423 -1.573867 2.682351 -39.192667 -157.431844 9.552459 -3.215251 -1.872548 1.924634 151.284455 33.115725 17.695407 -2.654950 -1.527868 1.513071 147.314121 27.561622 -29.882689 -2.018834 -1.152013 1.108051 -0.000003 -0.000003 0.000002 -9.108386 -0.517556 2.260130 101.713818 15.191539 -18.665766 -3.700055 0.000328 0.001525 98.836901 12.261790 -14.268590 -2.850062 0.000383 -0.000258 97.110769 9.313314 -10.539745 -2.772170 0.000000 -0.000020 0.000001 -0.000001 -0.000001 -9.532584 0.000280 0.000241 93.750070 14.736106 -15.871292 -3.700076 0.000319 0.003959 92.438653 10.770418 -11.138728 -2.950049 0.000342 -0.001812 93.998375 10.025999 -10.739680 -2.946636 0.000002 -0.000154 0.000001 -0.000000 0.000001 -9.103691 -0.042756 -1.864875 92.132230 15.878165 -16.426482 -3.379298 0.000326 -0.000803 93.125333 8.545499 -9.040951 -2.889725 0.000347 0.000665 99.261698 5.563277 -6.594541 -2.638816 -0.000001 0.000940 -0.000003 -0.000000 -0.000000 -8.076750 -0.486394 -3.806019 85.893351 15.296229 -14.110466 -3.600036 0.000289 -0.003522 88.521751 6.738185 -6.228716 -2.099998 0.000325 -0.005486 92.762739 3.506885 -3.457051 -2.115758 -0.000037 -0.003679 -0.000002 0.000001 -0.000001 4.570446 11.014691 -2.160851 -0.000018 0.000010 -0.000021 10.592381 -0.524491 -2.232343 73.793965 -5.546450 4.165451 27.841831 0.000063 -0.000198 101.149917 -71.156494 82.054020 28.328840 -0.000029 0.000021 0.000018 -0.000089 -0.000000 2.466256 -1.576015 2.681819 12.573857 172.819550 -111.289176 3.217850 -1.871781 1.916406 169.645015 -25.510130 24.308404 2.656101 -1.528668 1.514486 144.366088 -25.690648 57.405220 2.020902 -1.154073 1.115143 0.000004 0.000003 0.000004 9.109386 -0.517854 2.259743 91.166858 -20.273236 20.668369 3.700042 0.000176 -0.000457 88.043160 -12.359380 11.963603 2.850034 0.000210 0.000195 86.562887 -8.972352 8.450408 2.774863 -0.000029 -0.000028 0.000001 -0.000001 0.000001 9.533461 0.000226 -0.000076 89.217502 -18.583087 18.326367 3.700028 0.000203 -0.000390 92.376929 -9.362133 9.754248 2.950034 0.000186 -0.000202 92.953267 -9.469847 9.971507 2.952865 -0.000031 0.000066 0.000002 0.000002 0.000000 9.104591 -0.042853 -1.865227 88.296321 -18.099837 17.579823 3.150035 0.000214 -0.000096 94.763670 -11.467815 12.457679 2.950015 0.000200 -0.000086 95.375136 -9.666389 10.615274 2.644331 0.000032 0.000063 0.000002 0.000002 0.000001 8.077842 -0.486727 -3.806400 79.325243 -19.482119 16.706718 3.600019 0.000164 0.014578 79.159884 -16.130479 13.799853 2.100049 0.000187 0.007539 80.814655 -11.774112 10.443881 2.125510 -0.000030 0.007518 -0.000001 -0.000002 0.000000 -8.207786 -6.751667 -1.599560 -0.077001 -0.000003 0.000080 -0.000002 -44.370110 0.345938 0.153719 -0.000000 -0.000000 0.000000 -44.423679 -3.043532 -0.076700 0.000000 -0.000002 -0.000006 -8.728667 10.710559 -0.000009 -0.000000 -0.000000 -0.000001 -0.000679 9.278123 0.000000 -0.000000 -0.000000 8.207792 -6.751710 -1.599556 -0.074518 -0.000003 0.000081 -0.000002 -44.370014 0.346960 0.148822 0.000002 0.000000 -0.000001 -44.423664 -3.044403 -0.074314 0.000000 -0.000002 -0.000004 -8.728671 10.710558 0.000007 -0.000000 -0.000000 0.000000 -0.000680 9.278137 -0.000000 0.000000 -0.000001 
0.000006 104.270477 1.554256 0.000010 0.000003 -0.000113 -0.000005 10.181587 0.131522 0.000001 -0.000003 0.000084 -0.000000 9.893967 -1.470711 0.000001 0.000000 -0.000000 -0.000000 9.220802 -1.370642 0.000000 -0.000000 -0.000000 0.000001 16.740433 -2.049030 0.000000 -0.000000 -0.000000 0.000000 9.617859 1.685014 0.000000 0.000000 0.000000 0.000002 22.037384 7.501101 0.000000 -0.000000 0.000000 -4.569968 11.014880 -2.160881 0.000008 0.000001 -0.000038 -10.592868 -0.524779 -2.231879 72.897004 36.131837 -27.090726 -27.841534 -0.000001 0.000552 -54.463539 103.710166 66.471572 -28.328819 0.000022 0.000029 -0.000319 -0.000040 0.000003 -2.464416 -1.573904 2.682377 -33.528029 -153.804426 19.960719 -3.215254 -1.872552 1.924634 151.475509 33.070833 17.069908 -2.654978 -1.527867 1.513058 146.454473 27.763935 -28.944381 -2.018834 -1.151994 1.108050 -0.000002 -0.000003 0.000002 -9.108365 -0.517548 2.260152 104.663025 14.934787 -19.331261 -3.700080 0.000322 0.001535 102.330304 11.249217 -13.921064 -2.850065 0.000377 -0.000238 100.571776 8.395038 -10.097628 -2.772171 -0.000014 -0.000016 -0.000000 -0.000001 -0.000000 -9.532574 0.000273 0.000253 94.697691 14.666479 -16.057814 -3.700042 0.000318 0.003960 93.614375 10.009471 -10.559731 -2.950039 0.000324 -0.001818 94.872598 9.441674 -10.268971 -2.946630 0.000003 -0.000152 0.000003 -0.000001 0.000002 -9.103686 -0.042751 -1.864861 92.359170 15.620819 -16.223209 -3.379300 0.000333 -0.000804 93.711527 9.015980 -9.635402 -2.889754 0.000357 0.000667 99.972086 6.142363 -7.367287 -2.638803 0.000000 0.000936 -0.000001 0.000000 0.000001 -8.076733 -0.486368 -3.806022 85.614113 15.272631 -14.020473 -3.600044 0.000279 -0.003511 89.514813 7.927235 -7.510961 -2.100002 0.000325 -0.005469 94.619539 4.728513 -4.890859 -2.115763 -0.000058 -0.003683 0.000003 0.000000 -0.000002 4.570446 11.014691 -2.160851 -0.000018 0.000010 -0.000021 10.592419 -0.524474 -2.232373 73.155363 -18.767676 13.982935 27.841822 0.000065 -0.000190 102.965853 -74.209493 87.085103 28.328829 -0.000043 0.000023 0.000021 -0.000088 -0.000002 2.466268 -1.576023 2.681817 15.611946 173.292104 -114.598717 3.217854 -1.871816 1.916414 169.532754 -22.973920 32.680942 2.656110 -1.528641 1.514475 144.756680 -25.801446 54.501751 2.020891 -1.154065 1.115141 0.000002 0.000005 0.000002 9.109406 -0.517848 2.259755 94.897146 -20.560737 22.339334 3.700043 0.000168 -0.000467 91.184091 -12.772376 13.054034 2.850053 0.000222 0.000197 89.004673 -9.457893 9.294499 2.774866 -0.000028 -0.000032 0.000005 0.000001 -0.000001 9.533470 0.000209 -0.000091 91.806171 -19.918942 20.534139 3.700049 0.000200 -0.000381 94.940101 -10.417203 11.347716 2.950064 0.000199 -0.000204 94.995282 -9.875723 10.774586 2.952877 -0.000031 0.000063 0.000003 -0.000000 0.000001 9.104610 -0.042847 -1.865214 90.073338 -19.604304 19.630934 3.150050 0.000215 -0.000085 96.883242 -12.813156 14.438677 2.950016 0.000188 -0.000075 96.096336 -10.282330 11.433650 2.644320 0.000028 0.000057 0.000002 0.000001 -0.000001 8.077850 -0.486726 -3.806416 81.525848 -20.683874 18.409339 3.600030 0.000162 0.014565 79.463459 -17.338054 14.889411 2.100045 0.000176 0.007529 79.860170 -12.416186 10.812348 2.125488 -0.000015 0.007513 -0.000000 0.000001 0.000000 -8.207786 -6.751667 -1.599560 -0.077001 -0.000003 0.000080 -0.000002 -44.370110 0.345938 0.153719 -0.000000 -0.000000 0.000000 -44.423679 -3.043532 -0.076700 0.000000 -0.000002 -0.000006 -8.728667 10.710559 -0.000009 -0.000000 -0.000000 -0.000001 -0.000679 9.278123 0.000000 -0.000000 -0.000000 8.207792 -6.751710 -1.599556 -0.074518 -0.000003 0.000081 -0.000002 -44.370014 0.346960 0.148822 0.000002 0.000000 -0.000001 -44.423664 -3.044403 -0.074314 0.000000 -0.000002 -0.000004 -8.728671 10.710558 0.000007 -0.000000 -0.000000 0.000000 -0.000680 9.278137 -0.000000 0.000000 -0.000001 
